<?xml version="1.0" encoding="iso-8859-1"?>
<!-- Generator: Adobe Illustrator 21.0.0, SVG Export Plug-In . SVG Version: 6.00 Build 0)  -->
<svg xmlns="http://www.w3.org/2000/svg" xmlns:xlink="http://www.w3.org/1999/xlink" version="1.1" id="Capa_1" x="0px" y="0px" viewBox="0 0 512 512" style="enable-background:new 0 0 512 512;" xml:space="preserve" width="512" height="512">
<g>
	<path style="fill:#FFDA2D;" d="M481,301c0,17.999-8.101,34.2-20.7,45c-10.499,9.6-24.3,15-39.3,15h-15c-8.401,0-15-6.601-15-15   c0-8.401,6.599-15,15-15h15c16.5,0,30-13.5,30-30s-13.5-30-30-30c-32.999,0-60-27.001-60-60v-45c0-8.401,6.599-15,15-15   s15,6.599,15,15v45c0,16.5,13.5,30,30,30C453.999,241,481,267.999,481,301z"/>
	<path style="fill:#FDBF00;" d="M460.3,346c-10.499,9.6-24.3,15-39.3,15h-15c-8.401,0-15-6.601-15-15H460.3z"/>
	<path style="fill:#575F64;" d="M421,346c0,24.899-20.099,45-45,45h-32.999c-8.401,0-15-6.601-15-15v-60c0-8.401,6.599-15,15-15H376   C400.901,301,421,321.099,421,346z"/>
	<path style="fill:#32393F;" d="M421,346c0,24.899-20.099,45-45,45h-32.999c-8.401,0-15-6.601-15-15v-30H421z"/>
	<path style="fill:#7C8388;" d="M196,181c-90.901,0-165,74.099-165,165c0,90.899,74.099,166,165,166s165-75.101,165-166   C361,255.099,286.901,181,196,181z"/>
	<path style="fill:#575F64;" d="M31,346h330c0,90.899-74.099,166-165,166S31,436.899,31,346z"/>
	<path style="fill:#FFDA2D;" d="M314.184,65.395l-21.211-21.211c-5.859-5.859-5.859-15.352,0-21.211s15.352-5.859,21.211,0   l21.211,21.211c5.859,5.859,5.859,15.352,0,21.211C329.535,71.254,320.043,71.254,314.184,65.395z"/>
	<path style="fill:#FFDA2D;" d="M416.605,65.395c-5.859-5.859-5.859-15.352,0-21.211l21.211-21.211   c5.859-5.859,15.352-5.859,21.211,0s5.859,15.352,0,21.211l-21.211,21.211C431.957,71.254,422.465,71.254,416.605,65.395z"/>
	<path style="fill:#FFDA2D;" d="M376,61c-8.291,0-15-6.709-15-15V15c0-8.291,6.709-15,15-15s15,6.709,15,15v31   C391,54.291,384.291,61,376,61z"/>
	<path style="fill:#FFDA2D;" d="M316,121h-30c-8.291,0-15-6.709-15-15s6.709-15,15-15h30c8.291,0,15,6.709,15,15   S324.291,121,316,121z"/>
	<path style="fill:#FFDA2D;" d="M466,121h-30c-8.291,0-15-6.709-15-15s6.709-15,15-15h30c8.291,0,15,6.709,15,15   S474.291,121,466,121z"/>
	<circle style="fill:#FFDA2D;" cx="376" cy="106" r="15"/>
</g>















</svg>
